<svg width="135" height="40" viewBox="0 0 135 40" fill="none" xmlns="http://www.w3.org/2000/svg">
<rect width="40" height="40" rx="6" fill="#17BE74"/>
<path d="M30.6572 17.605C30.6572 23.4916 25.8852 28.2637 19.9985 28.2637C14.1119 28.2637 9.33984 23.4916 9.33984 17.605C9.33984 11.7183 14.1119 6.94629 19.9985 6.94629C25.8852 6.94629 30.6572 11.7183 30.6572 17.605Z" fill="white"/>
<path d="M19.759 33.6529V25.5092L30.5374 16.7666C31.3758 25.5092 23.8309 32.6549 19.759 33.6529Z" fill="white"/>
<circle cx="19.9988" cy="17.6052" r="4.67066" fill="#17BE74"/>
<path d="M69.5934 29.3629C66.9135 32.0175 63.652 33.3449 59.8091 33.3449C55.9662 33.3449 52.7048 32.0175 50.0249 29.3629C47.3703 26.683 46.043 23.4089 46.043 19.5408C46.043 15.6726 47.3703 12.4112 50.0249 9.75653C52.7048 7.07661 55.9662 5.73666 59.8091 5.73666C63.652 5.73666 66.9135 7.07661 69.5934 9.75653C72.2733 12.4112 73.6132 15.6726 73.6132 19.5408C73.6132 23.4089 72.2733 26.683 69.5934 29.3629ZM53.7035 25.7981C55.3468 27.4162 57.3821 28.2252 59.8091 28.2252C62.2362 28.2252 64.2715 27.4162 65.9148 25.7981C67.5582 24.1548 68.3798 22.069 68.3798 19.5408C68.3798 17.0125 67.5582 14.9267 65.9148 13.2834C64.2715 11.6401 62.2362 10.8184 59.8091 10.8184C57.3821 10.8184 55.3468 11.6401 53.7035 13.2834C52.0601 14.9267 51.2385 17.0125 51.2385 19.5408C51.2385 22.069 52.0601 24.1548 53.7035 25.7981Z" fill="white"/>
<path d="M77.064 32.8139V5.12988H81.9561V32.8139H77.064Z" fill="white"/>
<path d="M88.8608 11.5769C88.0518 11.5769 87.3439 11.2861 86.7371 10.7046C86.1556 10.0978 85.8649 9.38994 85.8649 8.58091C85.8649 7.77188 86.1556 7.06397 86.7371 6.4572C87.3439 5.85043 88.0518 5.54704 88.8608 5.54704C89.6951 5.54704 90.403 5.85043 90.9845 6.4572C91.5913 7.06397 91.8947 7.77188 91.8947 8.58091C91.8947 9.38994 91.5913 10.0978 90.9845 10.7046C90.403 11.2861 89.6951 11.5769 88.8608 11.5769ZM86.4337 32.8139V13.8523H91.3258V32.8139H86.4337Z" fill="white"/>
<path d="M99.9371 25.343C100.594 27.7196 102.377 28.9078 105.284 28.9078C107.155 28.9078 108.571 28.2758 109.532 27.0117L113.476 29.2871C111.605 31.9923 108.849 33.3449 105.208 33.3449C102.073 33.3449 99.5579 32.3968 97.6617 30.5006C95.7655 28.6044 94.8174 26.2153 94.8174 23.3331C94.8174 20.4762 95.7529 18.0997 97.6238 16.2035C99.4947 14.2821 101.896 13.3213 104.829 13.3213C107.61 13.3213 109.898 14.2821 111.693 16.2035C113.514 18.125 114.424 20.5015 114.424 23.3331C114.424 23.9651 114.361 24.6351 114.234 25.343H99.9371ZM99.8612 21.5507H109.532C109.254 20.2613 108.672 19.3006 107.787 18.6685C106.928 18.0365 105.942 17.7204 104.829 17.7204C103.515 17.7204 102.427 18.0617 101.568 18.7444C100.708 19.4017 100.139 20.3371 99.8612 21.5507Z" fill="white"/>
<path d="M129.575 13.8523H134.96L127.755 32.8139H122.18L114.975 13.8523H120.36L124.948 27.1254L129.575 13.8523Z" fill="white"/>
</svg>
